<?xml version="1.0" encoding="utf-8"?>
<!-- Generator: Adobe Illustrator 27.1.1, SVG Export Plug-In . SVG Version: 6.00 Build 0)  -->
<svg version="1.1" id="Capa_1" xmlns="http://www.w3.org/2000/svg" xmlns:xlink="http://www.w3.org/1999/xlink" x="0px" y="0px"
	 viewBox="0 0 500 500" style="enable-background:new 0 0 500 500;" xml:space="preserve">
<style type="text/css">
	.st0{opacity:0.5;}
	.st1{fill:#1DE9B6;}
	.st2{fill:#2962FF;}
</style>
<g>
	<g class="st0">
		<path class="st1" d="M306.4,439.3c-9.6,6.8-20.7,10.1-31.8,10.1c-17.4,0-34.7-8.3-45.5-23.7l-98.1-140.2
			c-17.5-25.1-11.5-59.7,13.7-77.3c9.5-6.7,20.5-10,31.3-10.1c1.2,2.2,2.6,4.4,4.1,6.5l98.1,140.2c10.9,15.4,28,23.7,45.5,23.7h0.4
			C336.5,392.8,329.5,423.3,306.4,439.3z"/>
	</g>
	<path class="st1" d="M324,368.6h-0.4c-17.5,0-34.7-8.3-45.5-23.7L180,204.7c-1.5-2.1-2.8-4.3-4.1-6.5c17.6-0.1,35.2,8.1,46,23.7
		l98.1,140.2C321.6,364.2,322.9,366.4,324,368.6z"/>
	<path class="st2" d="M355.5,358.6c-9.6,6.7-20.6,9.9-31.5,10c-1.1-2.2-2.5-4.4-3.9-6.5L222,221.9c-10.9-15.6-28.4-23.8-46-23.7
		c-5.4-10.6-7.2-23-5.2-34.9c2.6-14.4,10.9-27.4,22.8-35.8L289,60.6c25.2-17.5,59.9-11.5,77.4,13.7c17.6,25.2,11.5,59.7-13.6,77.4
		l-50,34.9l66.3,94.7C386.7,306.3,380.6,341,355.5,358.6z"/>
</g>
</svg>
