<?xml version="1.0" encoding="utf-8"?>
<!-- Generator: Adobe Illustrator 27.1.1, SVG Export Plug-In . SVG Version: 6.00 Build 0)  -->
<svg version="1.1" id="Capa_1" xmlns="http://www.w3.org/2000/svg" xmlns:xlink="http://www.w3.org/1999/xlink" x="0px" y="0px"
	 viewBox="0 0 48 48" style="enable-background:new 0 0 48 48;" xml:space="preserve">
<style type="text/css">
	.st0{fill:#2962FF;}
</style>
<path class="st0" d="M9,42c-0.8,0-1.5-0.3-2.1-0.9C6.3,40.5,6,39.8,6,39V9c0-0.8,0.3-1.5,0.9-2.1S8.2,6,9,6h14v3H9v30h30V25h3v14
	c0,0.8-0.3,1.5-0.9,2.1C40.5,41.7,39.8,42,39,42H9z M19.1,31L17,28.9L36.9,9H26V6h16v16h-3V11.1L19.1,31z"/>
</svg>
