<?xml version="1.0" encoding="utf-8"?>
<!-- Generator: Adobe Illustrator 26.1.0, SVG Export Plug-In . SVG Version: 6.00 Build 0)  -->
<svg version="1.1" id="Capa_1" xmlns="http://www.w3.org/2000/svg" xmlns:xlink="http://www.w3.org/1999/xlink" x="0px" y="0px"
	 viewBox="0 0 841.9 595.3" style="enable-background:new 0 0 841.9 595.3;" xml:space="preserve">
<style type="text/css">
	.st0{fill:#FFFFFF;}
	.st1{opacity:0.7;}
	.st2{fill:#1DE9B6;}
	.st3{fill:#2962FF;}
</style>
<g>
	<path class="st0" d="M466.1,288.7c4.9,2.7,8.8,6.6,11.5,11.8c2.8,5.1,4.2,11.3,4.2,18.6v33c0,2-0.6,3.6-1.9,4.9
		c-1.3,1.3-2.9,1.9-4.9,1.9c-2,0-3.6-0.6-4.9-1.9c-1.3-1.3-1.9-2.9-1.9-4.9v-33c0-7.3-1.9-12.7-5.8-16.4c-3.9-3.7-9.1-5.6-15.5-5.6
		c-3.8,0-7.2,0.8-10.3,2.3c-3.1,1.5-5.5,3.6-7.3,6.2c-1.7,2.6-2.6,5.5-2.6,8.7v37.9c0,2-0.6,3.6-1.9,4.9c-1.3,1.3-2.9,1.9-5,1.9
		c-2,0-3.6-0.6-4.9-1.9c-1.3-1.3-1.9-2.9-1.9-4.9v-91.3c0-2.1,0.6-3.7,1.9-5c1.3-1.3,2.9-1.9,4.9-1.9c2.1,0,3.7,0.6,5,1.9
		c1.3,1.3,1.9,2.9,1.9,5v32.9c2.9-2.9,6.3-5.1,10.2-6.6c3.9-1.6,8.1-2.3,12.6-2.3C455.7,284.7,461.2,286,466.1,288.7z"/>
	<path class="st0" d="M557,289.6c5.6,3.2,10,7.6,13.2,13.2c3.2,5.6,4.8,12.1,4.8,19.3c0,7.2-1.6,13.6-4.7,19.2
		c-3.1,5.6-7.5,10-13.1,13.2c-5.6,3.2-12,4.8-19.1,4.8c-7.2,0-13.6-1.6-19.2-4.8c-5.6-3.2-10-7.6-13.2-13.2
		c-3.1-5.6-4.7-12-4.7-19.2c0-7.3,1.6-13.7,4.7-19.3c3.1-5.6,7.5-10,13.2-13.2c5.6-3.2,12-4.8,19.2-4.8
		C545.1,284.8,551.4,286.4,557,289.6z M525.7,300.1c-3.6,2.2-6.5,5.1-8.5,9s-3.1,8.2-3.1,13c0,4.8,1,9.2,3.1,13s4.9,6.8,8.5,8.9
		c3.6,2.1,7.7,3.2,12.3,3.2c4.6,0,8.7-1.1,12.3-3.2c3.6-2.2,6.4-5.1,8.5-8.9c2-3.8,3-8.1,3-13c0-4.8-1-9.2-3-13
		c-2-3.9-4.8-6.8-8.5-9c-3.6-2.1-7.7-3.2-12.3-3.2C533.4,296.9,529.3,298,525.7,300.1z"/>
	<path class="st0" d="M651.1,289.7c5.7,3.3,10.1,7.7,13.4,13.4c3.2,5.7,4.8,12,4.8,19c0,7-1.5,13.3-4.5,19
		c-3,5.7-7.1,10.1-12.4,13.4c-5.2,3.2-11.1,4.8-17.5,4.8c-5.2,0-10-1.1-14.5-3.2c-4.5-2.1-8.3-5.1-11.4-9v36.3c0,2.1-0.6,3.7-1.9,5
		c-1.3,1.3-2.9,1.9-5,1.9c-2,0-3.6-0.6-4.9-1.9c-1.3-1.3-1.9-2.9-1.9-5v-61.2c0-7,1.6-13.3,4.9-19c3.3-5.7,7.7-10.2,13.3-13.4
		c5.6-3.3,11.8-4.9,18.7-4.9C639.1,284.8,645.4,286.4,651.1,289.7z M644.4,344c3.6-2.2,6.5-5.2,8.6-9c2.1-3.8,3.2-8.1,3.2-12.8
		s-1.1-9-3.2-12.9c-2.1-3.8-5-6.9-8.6-9.1c-3.6-2.2-7.7-3.3-12.2-3.3c-4.5,0-8.5,1.1-12.1,3.3c-3.6,2.2-6.5,5.2-8.5,9.1
		c-2.1,3.9-3.1,8.1-3.1,12.9s1,9,3.1,12.8c2.1,3.8,4.9,6.8,8.5,9c3.6,2.2,7.7,3.3,12.1,3.3C636.7,347.2,640.8,346.1,644.4,344z"/>
</g>
<g>
	<g class="st1">
		<path class="st2" d="M308.3,436.2c-7,5-15.2,7.4-23.3,7.4c-12.7,0-25.4-6.1-33.3-17.3l-71.8-102.6c-12.8-18.3-8.4-43.7,10-56.5
			c7-4.9,15-7.3,22.9-7.4c0.9,1.6,1.9,3.3,3,4.8l71.8,102.6c7.9,11.3,20.5,17.3,33.3,17.3h0.3C330.4,402.1,325.2,424.4,308.3,436.2z
			"/>
	</g>
	<path class="st2" d="M321.3,384.4H321c-12.8,0-25.4-6.1-33.3-17.3l-71.8-102.6c-1.1-1.5-2.1-3.2-3-4.8c12.9-0.1,25.7,6,33.7,17.3
		l71.8,102.6C319.4,381.2,320.4,382.8,321.3,384.4z"/>
	<path class="st3" d="M344.3,377.1c-7,4.9-15.1,7.2-23,7.3c-0.8-1.6-1.8-3.3-2.9-4.8l-71.8-102.6c-7.9-11.4-20.8-17.4-33.7-17.3
		c-4-7.8-5.2-16.8-3.8-25.6c1.9-10.6,7.9-20,16.7-26.2l69.8-48.9c18.4-12.8,43.8-8.4,56.6,10c12.9,18.4,8.4,43.7-9.9,56.6
		l-36.6,25.6l48.5,69.3C367.1,338.8,362.6,364.2,344.3,377.1z"/>
</g>
</svg>
